<?xml version="1.0" encoding="utf-8"?>
<!-- Generator: Adobe Illustrator 18.1.0, SVG Export Plug-In . SVG Version: 6.00 Build 0)  -->
<svg version="1.1" id="Layer_1" xmlns="http://www.w3.org/2000/svg" xmlns:xlink="http://www.w3.org/1999/xlink" x="0px" y="0px"
	 viewBox="0 0 150 150" enable-background="new 0 0 150 150" xml:space="preserve">
<g>
	<polygon fill="#2F98BB" points="42.2,87.5 42.2,49 8.8,29.9 8.8,68.3 	"/>
	<polygon fill="#434343" points="8.8,29.9 42.2,10.4 75.5,29.9 42.2,49.3 	"/>
	<polygon fill="#2F98BB" points="108.9,87.5 108.9,49 142.2,29.9 142.2,68.3 	"/>
	<polygon fill="#434343" points="142.2,29.9 108.9,10.4 75.5,29.9 108.9,49.3 	"/>
	<polygon fill="#4CC1E2" points="99.9,81.6 80.1,92.5 80.1,92.5 78.9,93.2 78.2,93.6 75.3,95.2 73.7,94.2 72.3,93.5 50.7,81.6 
		50.7,54.5 63.2,47.7 65.3,46.5 69.6,44.1 70.3,43.7 72.4,42.6 73.4,42 75.4,41 76.7,41.7 77.5,42.1 100,54.5 	"/>
	<polygon opacity="0.5" fill="#FFFFFF" points="99.4,54.2 77.5,42.1 76.7,41.7 75.4,41 73.4,42 72.4,42.6 70.3,43.7 69.6,44.1 
		65.3,46.5 63.2,47.7 50.7,54.5 50.7,62.7 71.8,74.3 73.1,75 74.7,75.9 77.6,74.3 78.3,73.9 79.5,73.3 79.6,73.3 99.4,62.4 	"/>
	<polygon fill="#434343" points="108.5,87.5 75.1,106.8 75.4,145.2 108.6,125.9 	"/>
	<polygon fill="#2F98BB" points="75.4,145.2 41.8,126.2 41.9,87.5 75.4,106.7 	"/>
</g>
</svg>
